<svg xmlns="http://www.w3.org/2000/svg" xmlns:xlink="http://www.w3.org/1999/xlink" viewBox="0,0,256,256" width="64px" height="64px" fill-rule="nonzero"><defs><linearGradient x1="32" y1="8.375" x2="32" y2="54.627" gradientUnits="userSpaceOnUse" id="color-1"><stop offset="0" stop-color="#00c6ff"></stop><stop offset="1" stop-color="#0072ff"></stop></linearGradient><linearGradient x1="32" y1="8.375" x2="32" y2="54.627" gradientUnits="userSpaceOnUse" id="color-2"><stop offset="0" stop-color="#00c6ff"></stop><stop offset="1" stop-color="#0072ff"></stop></linearGradient><linearGradient x1="22.678" y1="17.314" x2="22.678" y2="35.685" gradientUnits="userSpaceOnUse" id="color-3"><stop offset="0" stop-color="#70dfff"></stop><stop offset="1" stop-color="#70afff"></stop></linearGradient><linearGradient x1="41.322" y1="17.314" x2="41.322" y2="35.685" gradientUnits="userSpaceOnUse" id="color-4"><stop offset="0" stop-color="#70dfff"></stop><stop offset="1" stop-color="#70afff"></stop></linearGradient></defs><g fill="none" fill-rule="nonzero" stroke="none" stroke-width="1" stroke-linecap="butt" stroke-linejoin="miter" stroke-miterlimit="10" stroke-dasharray="" stroke-dashoffset="0" font-family="none" font-weight="none" font-size="none" text-anchor="none" style="mix-blend-mode: normal"><g transform="scale(4,4)"><path d="M52,8h-40c-1.654,0 -3,1.346 -3,3v31c0,1.654 1.346,3 3,3h14v2h-9c-0.297,0 -0.578,0.132 -0.769,0.36l-5,6c-0.248,0.298 -0.302,0.713 -0.137,1.064c0.165,0.351 0.518,0.576 0.906,0.576h40c0.388,0 0.741,-0.225 0.905,-0.576c0.165,-0.352 0.111,-0.767 -0.137,-1.064l-5,-6c-0.19,-0.228 -0.471,-0.36 -0.768,-0.36h-9v-2h14c1.654,0 3,-1.346 3,-3v-31c0,-1.654 -1.346,-3 -3,-3zM46.531,49l3.334,4h-35.73l3.334,-4h8.531v2h12v-2zM36,49h-8v-4h8zM53,42c0,0.551 -0.448,1 -1,1h-14h-12h-14c-0.552,0 -1,-0.449 -1,-1v-31c0,-0.551 0.448,-1 1,-1h40c0.552,0 1,0.449 1,1z" fill="url(#color-1)"></path><path d="M13,41h38v-29h-38zM15,14h34v25h-34z" fill="url(#color-2)"></path><path d="M26.271,17.314l-8.644,9.186l8.644,9.186l1.458,-1.372l-7.356,-7.814l7.356,-7.814z" fill="url(#color-3)"></path><path d="M36.271,18.686l7.356,7.814l-7.356,7.814l1.458,1.372l8.644,-9.186l-8.644,-9.186z" fill="url(#color-4)"></path></g></g></svg>