<svg width="1440" height="626" viewBox="0 0 1440 626" fill="none" xmlns="http://www.w3.org/2000/svg">
<g clip-path="url(#clip0_18_278)">
<path d="M1194.67 -220.174C1185.98 -185.871 1161.67 -157.211 1125.07 -134.767C1088.46 -112.321 1039.59 -96.1126 981.849 -86.7172C866.369 -67.9269 715.52 -76.4047 556.684 -116.627C397.848 -156.85 261.145 -221.19 168.527 -292.678C122.217 -328.422 86.9488 -365.938 65.4383 -403.101C43.9294 -440.26 36.192 -477.036 44.8786 -511.339C53.5652 -545.641 77.8732 -574.302 114.476 -596.746C151.081 -619.191 199.955 -635.4 257.695 -644.795C373.175 -663.586 524.024 -655.108 682.86 -614.885C841.696 -574.663 978.399 -510.323 1071.02 -438.835C1117.33 -403.091 1152.59 -365.574 1174.11 -328.412C1195.61 -291.252 1203.35 -254.477 1194.67 -220.174Z" stroke="url(#paint0_linear_18_278)"/>
<path d="M1455.27 -154.18C1442.63 -104.267 1407.27 -62.582 1354.05 -29.9515C1300.83 2.6807 1229.79 26.238 1145.88 39.8918C978.06 67.1989 758.855 54.877 528.054 -3.56948C297.254 -62.0159 98.6035 -155.509 -35.9941 -259.399C-103.294 -311.344 -154.56 -365.874 -185.833 -419.902C-217.104 -473.927 -228.368 -527.42 -215.728 -577.333C-203.088 -627.246 -167.722 -668.931 -114.507 -701.561C-61.2891 -734.193 9.75158 -757.751 93.663 -771.404C261.484 -798.712 480.689 -786.39 711.49 -727.943C942.29 -669.497 1140.94 -576.004 1275.54 -472.114C1342.84 -420.169 1394.1 -365.639 1425.38 -311.611C1456.65 -257.586 1467.91 -204.092 1455.27 -154.18Z" stroke="url(#paint1_linear_18_278)"/>
<path d="M1772.38 -73.8768C1754.93 -4.96958 1706.11 52.5638 1632.68 97.5894C1559.25 142.617 1461.23 175.116 1345.48 193.951C1113.97 231.622 811.585 214.622 493.217 134.001C174.849 53.3795 -99.1787 -75.5873 -284.857 -218.904C-377.698 -290.563 -448.43 -365.795 -491.582 -440.345C-534.732 -514.893 -550.286 -588.728 -532.837 -657.635C-515.387 -726.543 -466.565 -784.076 -393.136 -829.102C-319.703 -874.129 -221.689 -906.628 -105.933 -925.464C125.578 -963.134 427.96 -946.135 746.328 -865.513C1064.7 -784.892 1338.72 -655.925 1524.4 -512.608C1617.24 -440.949 1687.98 -365.717 1731.13 -291.167C1774.28 -216.62 1789.83 -142.784 1772.38 -73.8768Z" stroke="url(#paint2_linear_18_278)"/>
</g>
<path d="M148 585.055C133.485 586.495 125.146 587.819 120.026 592.195C114.009 597.319 112.583 606.703 111 625.473C109.364 606.012 107.886 596.685 101.288 591.677C96.1683 587.761 87.8816 586.495 74 585.113C88.4622 583.674 96.8545 582.349 101.922 578.031C107.991 572.85 109.417 563.523 111 544.696C112.478 562.026 113.797 571.295 118.706 576.65C123.615 582.004 132.165 583.501 148 585.055Z" fill="white"/>
<path d="M93.4708 466.181C87.0714 479.085 83.5357 485.519 79.9708 485.519C76.4058 485.519 72.8701 479.085 66.5 466.181C72.8701 479.085 75.9091 485.894 74.1266 489.469C72.3442 493.044 65.7695 493.418 53 493.418C66.237 493.418 72.8117 493.793 74.3019 497.742C75.7045 501.419 72.6656 508.194 66.5 520.655C72.8993 507.752 76.4351 501.317 80 501.317C83.5649 501.317 87.1006 507.752 93.5 520.655C86.7208 506.934 83.7403 500.125 86.2532 496.721C88.474 493.724 95.0195 493.418 107 493.418C93.5 493.418 86.9253 493.009 85.6104 488.822C84.4123 485.077 87.4513 478.336 93.4708 466.181Z" fill="white"/>
<defs>
<linearGradient id="paint0_linear_18_278" x1="84.6957" y1="-531.204" x2="1080.75" y2="-117.975" gradientUnits="userSpaceOnUse">
<stop stop-color="#484848"/>
<stop offset="0.491388" stop-color="#484848" stop-opacity="0.36"/>
<stop offset="1" stop-color="#484848"/>
</linearGradient>
<linearGradient id="paint1_linear_18_278" x1="-157.657" y1="-606.141" x2="1289.55" y2="-5.74734" gradientUnits="userSpaceOnUse">
<stop stop-color="#484848"/>
<stop offset="0.491388" stop-color="#484848" stop-opacity="0.36"/>
<stop offset="1" stop-color="#484848"/>
</linearGradient>
<linearGradient id="paint2_linear_18_278" x1="-452.554" y1="-697.324" x2="1543.61" y2="130.813" gradientUnits="userSpaceOnUse">
<stop stop-color="#484848"/>
<stop offset="0.491388" stop-color="#484848" stop-opacity="0.36"/>
<stop offset="1" stop-color="#484848"/>
</linearGradient>
<clipPath id="clip0_18_278">
<rect width="1440" height="426" fill="white"/>
</clipPath>
</defs>
</svg>
