<svg width="298" height="391" viewBox="0 0 298 391" fill="none" xmlns="http://www.w3.org/2000/svg">
<path d="M160 160L199.041 186.077C248.27 131.106 288.735 85.8877 291 84C293.353 82.0392 269.691 144.795 241.145 214.2L291 247.5L228.067 245.623C201.771 308.03 174.111 368.816 160 387L110.597 284.664C57.5595 343.591 13.9785 391.447 16 387C18.5308 381.432 59.0916 322.329 98.9302 260.498L89.7577 241.498L6 239L64.9044 190.016L6 68L291 2L64.9044 190.016L89.7577 241.498L110.692 242.122C129.627 212.323 147.506 183.057 160 160Z" fill="#E47DBB" stroke="white" stroke-width="4"/>
</svg>
